<?xml version="1.0" encoding="UTF-8" standalone="no"?>
<svg 
  version="1.1" 
  xmlns="http://www.w3.org/2000/svg" 
  xmlns:xlink="http://www.w3.org/1999/xlink" 
  xmlns:svg="http://www.w3.org/2000/svg"
  xmlns:rdf="http://www.w3.org/1999/02/22-rdf-syntax-ns#"
  xmlns:cc="http://creativecommons.org/ns#"
  xmlns:dc="http://purl.org/dc/elements/1.1/"
  viewBox="0 0 768 768"
  width="768"
  height="768"
>
<style>svg {background-color: white; }</style>"
<metadata id="metadata1">
Created by https://svgstud.io and licensed under CC-BY-SA 4.0 license. Please attribute https://svgstud.io
</metadata>
<metadata id="prompt">
Air Compressor
</metadata>
<metadata id="version">
7
</metadata>
<metadata id="metadata2">
<rdf:RDF>
<cc:Work
    rdf:about="">
    <cc:license
    rdf:resource="http://creativecommons.org/licenses/by-sa/4.0/" />
    <dc:creator>
        <cc:Agent>
            <dc:title>https://svgstud.io</dc:title>
        </cc:Agent>
    </dc:creator>
</cc:Work>
<cc:License
    rdf:about="http://creativecommons.org/licenses/by-sa/4.0/">
    <cc:permits
    rdf:resource="http://creativecommons.org/ns#Reproduction" />
    <cc:permits
    rdf:resource="http://creativecommons.org/ns#Distribution" />
    <cc:requires
    rdf:resource="http://creativecommons.org/ns#Notice" />
    <cc:requires
    rdf:resource="http://creativecommons.org/ns#Attribution" />
    <cc:permits
    rdf:resource="http://creativecommons.org/ns#DerivativeWorks" />
    <cc:requires
    rdf:resource="http://creativecommons.org/ns#ShareAlike" />
</cc:License>
</rdf:RDF>
</metadata>
<metadata id="uid">
b68328a13874ec5bc1a2df524e4b85d395bf0918ec432556bb972c2ad08b153f
</metadata>
<path stroke="none" fill="black" fill-rule="evenodd" d="M446.00,723.34C444.07,723.52 441.15,723.51 439.50,723.31C437.85,723.11 423.52,721.59 407.65,719.93C391.78,718.28 377.17,716.59 375.18,716.18C371.99,715.51 371.46,714.95 370.54,711.28C369.97,709.00 369.22,706.87 368.88,706.53C368.54,706.20 359.09,705.06 347.88,704.00C336.67,702.93 317.48,701.09 305.23,699.90C282.95,697.73 282.95,697.73 266.23,700.11C252.76,702.03 245.40,702.48 228.50,702.45C214.18,702.43 203.53,701.86 195.00,700.67C188.12,699.72 181.08,698.68 179.34,698.37C176.74,697.91 176.08,697.24 175.57,694.54C175.01,691.53 174.59,691.22 170.34,690.63C167.80,690.28 162.72,690.00 159.04,690.00C155.37,690.00 149.70,689.51 146.43,688.91C143.17,688.32 138.30,686.63 135.61,685.18C132.92,683.72 129.66,680.94 128.38,679.00C127.09,677.06 125.76,674.03 125.40,672.27C124.95,669.99 125.37,667.90 126.88,665.00C128.05,662.77 128.99,660.61 128.97,660.22C128.96,659.82 127.27,658.44 125.22,657.15C123.18,655.85 119.54,652.48 117.14,649.65C114.74,646.82 111.08,641.70 109.02,638.28C106.95,634.86 103.43,626.53 101.19,619.78C98.95,613.03 96.34,603.45 95.39,598.50C94.18,592.27 93.65,584.58 93.65,573.50C93.65,562.97 94.23,554.08 95.35,547.50C96.29,542.00 97.96,533.67 99.04,529.00C100.13,524.33 102.86,515.46 105.10,509.31C107.34,503.15 112.29,491.74 116.09,483.96C119.89,476.17 125.53,465.91 128.63,461.15C131.72,456.39 136.56,449.60 139.38,446.05C144.50,439.59 144.50,439.59 144.83,419.67C145.01,408.72 144.78,399.40 144.33,398.97C143.87,398.54 137.65,397.65 130.50,396.99C122.25,396.23 116.49,395.20 114.74,394.17C113.22,393.28 110.00,390.02 107.60,386.92C105.19,383.82 102.83,380.43 102.36,379.39C101.88,378.35 101.50,348.93 101.50,314.00C101.50,250.50 101.50,250.50 104.16,244.82C105.97,240.97 108.19,238.15 111.07,236.07C113.40,234.38 116.93,232.57 118.90,232.06C120.88,231.54 131.95,229.97 143.50,228.56C155.36,227.11 169.07,226.05 175.00,226.12C180.78,226.18 186.85,226.55 188.50,226.94C190.92,227.50 190.04,227.78 184.00,228.40C179.88,228.82 169.53,230.05 161.00,231.14C152.47,232.23 138.80,233.99 130.61,235.05C122.13,236.14 114.17,237.73 112.12,238.74C110.14,239.71 107.51,242.03 106.26,243.90C105.02,245.77 104.00,248.59 104.00,250.18C104.00,251.98 104.64,253.31 105.71,253.72C106.65,254.08 115.08,253.83 124.46,253.17C133.83,252.51 145.51,251.53 150.41,250.98C155.32,250.44 159.44,250.11 159.57,250.25C159.70,250.39 159.13,252.53 158.31,255.00C157.48,257.48 156.51,259.82 156.15,260.20C155.79,260.59 145.37,261.83 133.00,262.97C120.62,264.10 109.46,265.26 108.19,265.55C106.36,265.96 105.94,266.64 106.19,268.78C106.50,271.50 106.50,271.50 116.00,271.22C121.22,271.06 132.15,270.48 140.27,269.93C148.39,269.38 155.77,268.64 156.67,268.30C158.08,267.75 158.23,268.27 157.72,272.05C157.40,274.46 156.45,276.93 155.61,277.55C154.77,278.16 144.05,279.44 131.79,280.39C119.53,281.34 108.71,282.34 107.75,282.62C106.72,282.92 106.00,284.11 106.00,285.51C106.00,286.81 106.34,288.08 106.75,288.32C107.16,288.55 116.95,288.37 128.50,287.91C140.05,287.46 151.41,286.81 153.75,286.48C157.93,285.89 158.00,285.93 158.00,288.83C158.00,290.45 157.21,292.73 156.25,293.90C154.84,295.61 153.05,296.11 147.00,296.51C142.88,296.78 132.30,297.49 123.50,298.09C114.70,298.69 106.94,299.64 106.25,300.21C105.56,300.78 105.00,302.06 105.00,303.06C105.00,304.06 105.35,305.10 105.77,305.36C106.19,305.62 115.08,305.44 125.52,304.95C135.96,304.47 147.59,303.85 151.37,303.59C158.25,303.10 158.25,303.10 157.66,306.74C157.33,308.74 156.22,311.23 155.19,312.26C153.58,313.86 150.01,314.39 130.71,315.90C116.07,317.04 107.57,318.12 106.56,318.95C105.70,319.66 105.00,321.10 105.00,322.15C105.00,323.20 105.71,324.34 106.59,324.67C107.46,325.01 118.19,324.79 130.42,324.18C142.66,323.57 153.93,322.60 155.47,322.01C158.27,320.95 158.27,320.95 157.70,325.22C157.32,328.05 156.28,330.22 154.63,331.64C152.38,333.58 150.55,333.84 135.32,334.43C126.07,334.79 115.80,335.40 112.50,335.79C106.83,336.46 106.48,336.66 106.17,339.37C105.84,342.24 105.84,342.24 128.67,341.77C142.85,341.48 152.59,340.86 154.39,340.13C155.98,339.48 157.48,339.14 157.72,339.39C157.97,339.63 157.30,341.78 156.25,344.17C155.19,346.55 153.69,349.02 152.91,349.66C152.03,350.39 144.91,351.06 134.00,351.44C124.38,351.79 114.10,352.31 111.16,352.62C106.25,353.12 105.72,353.43 104.41,356.55C103.64,358.41 103.00,361.92 103.00,364.35C103.00,367.05 103.58,369.24 104.51,370.00C105.68,370.98 112.73,371.10 136.26,370.58C152.89,370.21 167.65,369.69 169.05,369.42C171.19,369.01 171.87,369.50 173.30,372.50C174.23,374.46 175.70,376.33 176.57,376.66C177.43,376.99 178.67,376.73 179.32,376.08C180.19,375.21 180.63,358.09 181.00,310.20C181.45,251.80 181.67,245.20 183.20,242.40C184.13,240.69 186.12,238.50 187.61,237.52C189.40,236.35 192.05,235.79 195.41,235.87C198.21,235.93 205.83,236.86 212.35,237.93C218.87,238.99 224.37,240.04 224.58,240.25C224.79,240.45 225.05,271.37 225.16,308.95C225.35,375.36 225.30,377.31 223.43,378.70C222.07,379.71 220.03,379.97 216.50,379.56C213.75,379.25 205.54,378.55 198.25,378.02C190.97,377.49 183.64,377.32 181.97,377.66C180.30,377.99 178.37,379.06 177.69,380.04C176.56,381.65 173.52,381.85 143.09,382.34C122.31,382.67 109.34,383.26 108.70,383.90C108.00,384.60 108.59,385.29 110.59,386.08C112.74,386.94 121.33,387.01 143.61,386.36C161.28,385.84 174.30,385.05 175.11,384.44C176.05,383.74 184.19,383.70 200.39,384.30C223.19,385.14 224.39,385.10 226.89,383.25C228.32,382.19 230.07,380.15 230.77,378.72C231.63,376.99 232.26,368.62 232.69,353.52C233.03,341.09 233.60,330.75 233.93,330.54C234.27,330.33 244.88,331.11 257.52,332.27C270.16,333.42 285.68,334.40 292.00,334.44C303.50,334.50 303.50,334.50 304.21,327.00C304.61,322.88 305.06,318.62 305.21,317.54C305.39,316.31 304.83,315.44 303.70,315.21C302.71,315.00 301.25,315.38 300.45,316.04C299.65,316.70 299.00,318.28 299.00,319.54C299.00,320.80 298.73,322.55 298.39,323.42C297.94,324.61 296.35,325.00 291.93,325.00C288.40,325.00 283.81,325.85 280.35,327.14C275.35,329.01 273.36,329.20 264.57,328.66C259.03,328.31 252.47,327.45 250.00,326.73C246.30,325.65 245.17,324.73 243.66,321.54C242.65,319.41 241.23,314.80 240.49,311.30C239.51,306.62 239.30,299.32 239.70,283.72C240.11,267.26 240.57,261.96 241.73,260.10C243.24,257.71 243.27,257.71 255.87,258.42C262.82,258.82 274.08,259.90 280.89,260.82C291.94,262.32 293.37,262.74 294.09,264.69C294.81,266.65 294.10,267.31 287.45,270.96C280.01,275.05 280.01,275.05 275.76,272.87C273.41,271.67 270.06,270.36 268.31,269.96C266.55,269.56 263.04,269.62 260.50,270.10C257.52,270.65 254.24,272.30 251.27,274.73C248.73,276.80 245.38,280.50 243.83,282.95C241.98,285.85 241.00,288.73 241.00,291.25C241.00,293.37 241.70,296.46 242.56,298.11C243.42,299.77 244.65,300.95 245.31,300.73C245.96,300.51 246.82,297.77 247.22,294.63C247.61,291.50 248.80,287.03 249.84,284.72C250.89,282.40 252.72,279.49 253.90,278.26C255.09,277.03 257.42,275.32 259.09,274.45C260.76,273.59 263.78,273.02 265.81,273.19C269.50,273.50 269.50,273.50 266.26,275.27C264.48,276.24 261.52,278.36 259.69,279.97C257.85,281.58 255.53,284.71 254.53,286.93C253.05,290.21 252.95,291.24 253.98,292.48C254.68,293.31 255.84,294.00 256.56,294.00C257.29,294.00 258.22,294.55 258.63,295.22C259.05,295.88 259.64,297.99 259.95,299.88C260.25,301.78 261.01,303.50 261.62,303.71C262.33,303.94 262.90,301.60 263.22,297.18C263.62,291.56 264.29,289.43 266.85,285.71C268.58,283.20 271.18,280.22 272.63,279.08C274.08,277.93 275.85,277.00 276.57,277.00C277.55,277.00 277.64,277.78 276.93,280.24C276.42,282.03 276.02,285.51 276.04,287.99C276.05,290.47 276.70,293.62 277.46,295.00C278.51,296.88 278.98,297.13 279.34,296.00C279.61,295.18 280.10,293.15 280.44,291.50C280.77,289.85 282.23,286.00 283.68,282.95C285.86,278.37 287.05,277.09 290.42,275.70C292.68,274.76 295.53,274.00 296.76,274.00C297.99,274.00 299.00,274.39 299.00,274.88C299.00,275.36 298.32,276.32 297.50,277.00C296.68,277.68 296.00,279.25 296.00,280.49C296.00,281.72 296.93,283.92 298.07,285.37C299.21,286.81 300.50,288.00 300.94,288.00C301.37,288.00 302.32,285.20 303.05,281.77C303.93,277.61 305.22,274.70 306.94,273.02C309.50,270.50 309.50,270.50 309.80,275.67C310.04,279.86 310.56,281.14 312.54,282.43C313.88,283.31 315.83,285.71 316.88,287.76C317.93,289.82 319.70,292.32 320.81,293.33C322.40,294.77 323.26,294.93 324.83,294.09C325.93,293.50 327.62,290.88 328.58,288.26C329.55,285.64 330.90,282.82 331.58,282.00C332.26,281.18 334.06,277.87 335.57,274.65C337.10,271.42 339.31,268.36 340.52,267.81C342.13,267.07 343.50,267.21 345.63,268.31C347.23,269.14 349.83,271.09 351.41,272.66C352.99,274.22 355.34,277.75 356.63,280.50C358.57,284.63 359.00,285.07 359.12,283.00C359.20,281.62 359.16,278.36 359.04,275.75C358.84,271.58 359.06,271.00 360.83,271.00C361.94,271.00 364.91,272.57 367.43,274.50C369.95,276.42 372.24,278.00 372.51,278.00C372.78,278.00 373.00,277.29 373.00,276.42C373.00,275.55 373.52,275.01 374.16,275.22C374.80,275.43 376.15,277.15 377.16,279.04C378.26,281.10 379.00,284.53 379.00,287.62C379.00,291.32 378.21,294.28 376.20,298.13C374.65,301.09 371.86,304.53 369.95,305.83C366.96,307.87 365.75,308.09 360.79,307.54C356.50,307.07 354.29,307.31 351.95,308.53C350.22,309.42 349.06,310.40 349.37,310.70C349.67,311.01 352.30,312.04 355.21,312.99C360.50,314.72 360.50,314.72 360.50,321.28C360.50,324.88 360.26,328.07 359.97,328.36C359.68,328.65 357.66,328.49 355.48,328.00C353.30,327.50 345.66,326.57 338.51,325.93C328.59,325.04 323.72,325.04 318.00,325.93C313.88,326.57 310.08,327.52 309.55,328.05C308.95,328.65 308.95,329.35 309.55,329.94C310.07,330.46 322.20,331.14 336.50,331.46C350.80,331.77 365.43,332.17 369.00,332.35C372.57,332.52 378.20,332.76 381.50,332.86C385.62,333.00 387.02,333.34 385.96,333.96C385.11,334.46 377.91,335.98 369.96,337.34C362.01,338.70 352.01,340.37 347.75,341.05C343.18,341.78 335.57,342.07 329.22,341.77C323.29,341.49 311.71,341.60 303.47,342.01C290.89,342.64 287.41,343.17 281.63,345.38C277.58,346.92 272.66,348.02 269.63,348.04C266.81,348.07 262.25,348.86 259.50,349.79C256.20,350.92 254.39,352.14 254.15,353.40C253.83,355.10 254.24,355.23 258.15,354.67C260.54,354.32 264.29,353.72 266.47,353.35C270.45,352.67 270.45,352.67 268.56,355.55C267.52,357.14 264.76,360.78 262.42,363.65C260.09,366.52 256.49,371.87 254.44,375.55C252.38,379.22 248.77,387.02 246.41,392.87C244.06,398.71 241.38,406.88 240.47,411.00C239.07,417.31 238.73,427.17 238.33,473.00C238.04,504.95 238.28,535.57 238.89,547.00C239.47,557.73 240.62,568.98 241.44,572.00C242.26,575.02 244.80,581.26 247.07,585.86C249.35,590.46 252.80,595.99 254.74,598.14C256.69,600.29 258.48,601.86 258.72,601.61C258.96,601.37 258.49,600.12 257.67,598.84C256.85,597.55 255.07,593.80 253.72,590.50C252.37,587.20 250.96,583.21 250.58,581.62C249.99,579.12 250.13,578.84 251.70,579.49C252.69,579.90 260.23,580.86 268.46,581.63C281.96,582.89 283.66,583.26 285.97,585.47C287.38,586.82 290.32,588.55 292.51,589.32C294.71,590.09 299.43,591.22 303.00,591.83C306.57,592.44 316.48,593.60 325.00,594.41C333.52,595.22 341.35,595.79 342.40,595.69C343.68,595.56 345.54,597.28 348.08,600.91C350.17,603.89 353.02,607.48 354.44,608.89C355.85,610.30 357.00,610.96 357.00,610.36C357.00,609.75 354.92,604.59 352.39,598.88C349.85,593.17 346.68,584.23 345.35,579.00C343.94,573.50 342.47,563.60 341.85,555.50C341.17,546.64 340.97,520.19 341.28,483.50C341.69,436.43 342.09,423.88 343.38,416.88C344.25,412.14 346.37,404.26 348.08,399.38C349.80,394.50 353.05,386.92 355.32,382.54C357.59,378.16 361.97,371.18 365.07,367.04C368.16,362.89 373.13,357.21 376.11,354.41C379.10,351.61 384.68,347.29 388.52,344.80C392.36,342.32 397.98,338.71 401.00,336.79C404.02,334.87 408.75,332.74 411.50,332.06C414.25,331.37 423.93,330.62 433.00,330.39C442.07,330.16 454.14,329.80 459.81,329.59C465.48,329.38 469.93,329.40 469.70,329.63C469.47,329.86 461.90,330.92 452.89,331.97C443.88,333.03 430.43,334.38 423.00,334.98C415.57,335.57 407.25,336.71 404.50,337.50C400.65,338.60 397.55,340.73 391.06,346.72C386.42,351.00 380.08,357.93 376.97,362.13C373.85,366.33 369.63,372.76 367.57,376.43C365.52,380.10 362.53,386.29 360.92,390.19C359.31,394.09 358.00,397.92 358.00,398.70C358.00,399.91 362.70,400.10 388.75,399.95C405.66,399.86 420.20,400.07 421.06,400.42C422.25,400.92 423.38,399.27 425.96,393.28C427.80,389.00 432.00,380.91 435.29,375.31C438.59,369.70 444.15,361.97 447.65,358.14C451.15,354.30 456.83,348.94 460.26,346.22C463.69,343.51 472.00,338.25 478.72,334.55C488.82,328.99 492.13,327.66 497.72,326.94C501.45,326.46 508.21,326.05 512.75,326.03C517.29,326.01 521.00,326.40 521.00,326.89C521.00,327.38 519.99,328.03 518.75,328.34C517.51,328.65 512.50,329.39 507.61,329.99C502.72,330.60 497.15,331.74 495.25,332.54C493.34,333.34 489.01,335.65 485.64,337.69C482.26,339.72 476.19,344.56 472.13,348.44C468.08,352.32 462.66,358.65 460.08,362.50C457.50,366.35 454.23,371.52 452.82,374.00C451.41,376.48 448.65,382.55 446.68,387.50C444.71,392.45 442.06,400.55 440.80,405.50C438.50,414.50 438.50,414.50 438.55,494.50C438.61,572.75 438.66,574.72 440.78,584.50C441.97,590.00 443.75,596.52 444.72,599.00C446.50,603.50 446.50,603.50 447.03,600.00C447.36,597.86 448.07,596.61 448.86,596.77C449.57,596.93 455.66,597.33 462.40,597.67C474.66,598.29 474.66,598.29 477.08,602.87C478.41,605.38 481.41,610.04 483.75,613.22C486.08,616.40 488.46,619.00 489.02,619.00C489.58,619.00 489.09,617.13 487.92,614.85C486.76,612.56 484.30,606.54 482.46,601.47C480.63,596.39 478.42,588.54 477.56,584.01C476.23,577.00 476.00,564.49 476.01,499.64C476.01,452.10 476.40,421.11 477.05,417.14C477.62,413.64 479.45,406.44 481.13,401.14C482.81,395.84 486.21,387.45 488.68,382.50C491.16,377.55 495.25,370.57 497.78,367.00C500.30,363.43 505.78,357.07 509.94,352.89C514.10,348.70 521.01,342.99 525.29,340.19C529.58,337.40 536.78,333.67 541.29,331.91C547.04,329.67 551.79,328.56 557.14,328.23C561.34,327.97 567.84,328.29 571.59,328.94C575.33,329.59 581.93,331.49 586.26,333.16C590.58,334.83 597.48,338.44 601.59,341.19C605.70,343.94 612.88,349.80 617.54,354.21C622.20,358.62 628.26,365.22 631.01,368.86C633.76,372.51 637.99,379.32 640.40,384.00C642.82,388.68 645.92,396.10 647.29,400.50C648.67,404.90 650.38,411.98 651.09,416.23C651.80,420.47 652.14,424.19 651.85,424.48C651.56,424.78 647.85,423.41 643.61,421.45C639.37,419.49 632.43,417.00 628.20,415.91C623.96,414.82 616.45,413.57 611.50,413.14C606.55,412.71 593.73,412.63 583.00,412.96C565.43,413.51 563.08,413.79 559.25,415.81C556.91,417.04 555.00,418.48 555.00,419.02C555.00,419.62 560.98,420.01 570.25,420.03C584.24,420.06 585.34,420.19 583.50,421.62C581.79,422.95 579.19,423.07 565.77,422.49C550.72,421.84 549.90,421.90 546.51,423.99C544.57,425.20 542.51,427.04 541.95,428.09C541.09,429.70 541.28,430.01 543.21,430.10C544.47,430.15 552.14,430.11 560.25,430.02C569.57,429.90 575.00,430.21 575.00,430.84C575.00,431.39 573.83,433.23 572.41,434.92C569.82,438.00 569.82,438.00 552.49,438.00C542.96,438.00 534.44,438.28 533.54,438.62C532.65,438.96 531.27,440.51 530.47,442.06C529.66,443.62 529.40,445.13 529.87,445.42C530.35,445.71 538.44,446.03 547.87,446.13C563.91,446.29 565.00,446.42 565.00,448.18C565.00,449.22 564.38,451.56 563.61,453.38C562.40,456.30 561.66,456.78 557.47,457.35C554.86,457.71 546.05,458.00 537.89,458.00C523.05,458.00 523.05,458.00 521.53,460.95C520.69,462.57 520.00,464.60 520.00,465.45C520.00,466.79 522.22,467.00 536.00,467.00C550.44,467.00 552.19,467.19 553.92,468.92C555.70,470.70 555.94,470.72 557.29,469.17C558.09,468.25 560.29,464.34 562.17,460.47C564.06,456.60 568.15,449.99 571.27,445.77C574.39,441.55 579.38,435.72 582.36,432.80C585.34,429.89 590.64,425.96 594.14,424.07C600.50,420.64 600.50,420.64 591.42,430.18C586.43,435.43 580.16,443.00 577.49,447.02C574.82,451.03 570.91,458.32 568.80,463.21C566.69,468.11 563.75,476.48 562.26,481.81C559.68,491.04 559.55,492.56 559.58,514.00C559.61,533.44 559.91,537.90 561.83,546.80C563.06,552.47 565.34,560.57 566.90,564.80C568.47,569.04 570.93,574.52 572.36,577.00C573.80,579.48 574.98,581.05 574.99,580.50C574.99,579.95 573.68,574.30 572.08,567.95C570.47,561.60 568.60,551.02 567.93,544.45C567.18,537.13 566.99,529.09 567.45,523.68C567.86,518.83 568.48,515.14 568.83,515.49C569.18,515.84 570.21,522.06 571.13,529.31C572.05,536.57 573.93,547.52 575.32,553.65C576.71,559.78 579.40,568.10 581.30,572.15C583.20,576.19 585.52,580.40 586.45,581.50C588.12,583.47 588.14,583.46 587.54,581.00C587.20,579.62 585.61,573.55 584.01,567.50C582.40,561.45 580.30,551.33 579.33,545.00C578.16,537.40 577.57,527.74 577.57,516.50C577.57,507.15 578.17,495.91 578.89,491.53C579.61,487.14 581.51,479.56 583.10,474.68C584.70,469.81 588.02,461.92 590.48,457.16C592.95,452.40 596.95,446.09 599.37,443.14C601.80,440.19 606.19,435.80 609.14,433.38C612.09,430.95 616.88,428.08 619.79,426.98C622.70,425.89 626.60,425.00 628.46,425.00C630.32,425.00 632.57,425.28 633.46,425.62C634.94,426.19 634.93,426.42 633.33,428.18C631.87,429.80 631.81,430.27 632.97,430.98C633.74,431.46 635.97,432.15 637.94,432.52C639.90,432.88 643.80,434.31 646.60,435.68C649.41,437.05 653.91,439.84 656.60,441.87C659.30,443.90 664.51,449.30 668.18,453.88C671.85,458.45 676.43,465.41 678.36,469.35C680.29,473.28 682.76,479.20 683.85,482.50C684.94,485.80 686.57,492.07 687.46,496.43C688.36,500.80 689.36,509.35 689.68,515.43C690.02,521.78 689.77,530.85 689.08,536.71C688.43,542.32 686.99,550.19 685.88,554.19C684.77,558.19 682.46,564.85 680.74,568.98C679.02,573.12 676.12,579.00 674.30,582.06C672.48,585.12 668.50,590.64 665.46,594.33C662.42,598.01 656.46,603.80 652.21,607.17C647.97,610.55 640.78,615.10 636.23,617.29C628.54,620.99 627.17,621.31 616.61,621.88C605.26,622.50 605.26,622.50 600.75,626.66C598.27,628.95 593.71,632.50 590.62,634.55C587.53,636.60 585.00,639.02 585.00,639.92C585.00,640.82 589.66,652.56 595.35,666.02C605.69,690.49 605.69,690.49 620.60,691.71C628.79,692.39 638.63,693.42 642.44,694.01C646.26,694.60 649.99,695.58 650.72,696.18C651.82,697.09 651.76,697.61 650.41,699.10C649.51,700.10 645.33,702.03 641.13,703.40C636.94,704.76 629.90,706.56 625.50,707.40C621.10,708.23 613.00,709.44 607.50,710.07C600.76,710.85 588.21,711.01 569.00,710.57C542.83,709.97 539.56,710.09 529.00,711.99C522.67,713.13 512.77,714.30 507.00,714.60C501.23,714.90 492.68,715.99 488.00,717.01C483.32,718.04 472.75,719.81 464.50,720.94C456.25,722.08 447.93,723.15 446.00,723.34zM439.63,706.86C443.47,706.95 446.13,706.53 446.77,705.75C447.33,705.06 450.08,698.30 452.90,690.72C455.71,683.14 461.39,667.00 465.50,654.86C469.62,642.72 472.73,632.36 472.40,631.85C472.06,631.29 471.21,631.41 470.33,632.14C469.51,632.82 467.69,635.65 466.28,638.43C464.87,641.21 459.02,656.09 453.28,671.49C447.54,686.90 442.45,699.90 441.97,700.40C441.46,700.93 434.22,700.80 424.30,700.09C415.06,699.43 404.91,698.62 401.75,698.30C397.11,697.83 396.00,697.37 396.00,695.93C396.00,694.94 398.65,686.79 401.88,677.82C405.12,668.84 409.57,656.55 411.77,650.50C413.97,644.45 417.16,635.79 418.85,631.26C421.94,623.02 421.94,623.02 419.72,622.54C418.50,622.28 413.70,621.93 409.06,621.78C400.69,621.50 400.61,621.52 398.56,624.50C396.50,627.50 396.50,627.50 387.50,626.87C382.55,626.52 372.65,626.07 365.50,625.87C352.50,625.50 352.50,625.50 352.19,629.00C352.02,630.92 349.61,637.78 346.84,644.23C341.79,655.95 341.79,655.95 344.90,664.53C346.60,669.25 348.00,673.98 348.00,675.05C348.00,676.71 347.29,677.00 343.25,677.01C340.64,677.01 334.45,677.48 329.50,678.05C322.45,678.86 317.47,678.74 306.50,677.52C298.80,676.66 291.32,675.72 289.88,675.43C288.05,675.06 286.78,673.78 285.66,671.20C284.79,669.16 282.80,664.12 281.26,660.00C279.26,654.66 277.95,652.50 276.73,652.50C275.73,652.50 270.61,657.93 264.50,665.47C258.73,672.61 254.00,679.19 254.00,680.10C254.00,681.15 255.14,681.98 257.12,682.38C258.84,682.72 262.39,683.00 265.00,683.00C267.61,683.00 271.56,683.64 273.78,684.42C276.00,685.21 278.08,685.59 278.39,685.28C278.71,684.96 278.70,683.65 278.37,682.35C278.05,681.06 278.05,679.31 278.37,678.47C278.90,677.09 279.29,677.10 282.05,678.53C284.00,679.53 290.63,680.60 300.02,681.41C312.24,682.46 316.47,682.45 323.70,681.37C328.54,680.65 336.32,679.98 341.00,679.87C345.68,679.77 356.02,680.43 363.99,681.33C371.96,682.23 379.10,683.21 379.85,683.50C380.79,683.86 381.00,684.87 380.54,686.76C380.16,688.27 378.70,692.10 377.28,695.27C375.87,698.44 374.98,701.32 375.32,701.65C375.66,701.99 382.13,702.67 389.72,703.17C397.30,703.67 410.25,704.68 418.50,705.40C426.75,706.13 436.26,706.79 439.63,706.86zM499.50,692.00C516.13,692.00 516.13,692.00 515.42,689.75C515.03,688.51 512.10,681.49 508.91,674.14C505.72,666.79 502.84,660.50 502.50,660.17C502.17,659.84 501.20,660.02 500.34,660.56C499.47,661.10 495.51,667.39 491.52,674.52C487.53,681.66 483.95,688.51 483.57,689.75C482.87,692.00 482.87,692.00 499.50,692.00zM548.58,691.00C554.03,691.00 554.03,691.00 552.60,687.75C551.81,685.96 549.09,679.55 546.55,673.50C544.01,667.45 541.33,661.14 540.60,659.48C539.45,656.90 538.42,656.29 533.42,655.24C529.69,654.46 527.24,654.36 526.62,654.98C526.01,655.59 526.09,657.34 526.83,659.83C527.47,661.97 530.64,669.09 533.88,675.67C537.11,682.24 540.52,688.37 541.45,689.31C542.63,690.48 544.80,691.00 548.58,691.00zM217.75,685.88C222.41,685.99 223.00,685.77 223.00,683.96C223.00,682.84 224.52,678.00 226.37,673.21C228.22,668.42 233.21,656.62 237.46,647.00C241.71,637.38 246.75,626.01 248.65,621.75C250.56,617.48 251.88,613.61 251.59,613.15C251.30,612.68 245.65,611.74 239.02,611.04C229.74,610.07 226.64,610.05 225.54,610.96C224.76,611.61 222.98,615.15 221.58,618.82C220.18,622.50 214.95,636.30 209.96,649.50C204.96,662.70 200.22,674.51 199.42,675.75C198.61,676.99 197.40,677.99 196.73,677.98C196.05,677.98 194.89,677.58 194.14,677.11C193.05,676.41 193.61,674.13 197.02,665.37C199.35,659.39 204.36,647.12 208.17,638.09C211.97,629.07 214.72,621.32 214.27,620.87C213.82,620.42 210.32,619.61 206.49,619.07C202.33,618.48 199.15,618.45 198.61,618.99C198.11,619.49 197.11,622.95 196.39,626.70C195.67,630.44 195.06,635.10 195.04,637.06C195.02,639.02 195.66,641.49 196.47,642.56C197.28,643.63 197.95,645.18 197.97,646.02C197.99,646.85 195.99,649.83 193.53,652.65C189.91,656.79 187.30,658.53 179.78,661.83C174.68,664.06 167.82,666.59 164.54,667.45C161.26,668.30 155.36,669.00 151.42,669.00C147.48,669.00 142.34,668.33 140.00,667.50C137.66,666.67 134.91,666.00 133.87,666.00C132.48,666.00 132.00,666.73 132.00,668.83C132.00,670.48 132.93,672.50 134.25,673.71C135.49,674.84 137.85,676.44 139.50,677.27C141.15,678.10 145.09,679.31 148.27,679.96C151.44,680.61 159.21,681.04 165.54,680.90C173.32,680.73 177.43,681.03 178.23,681.83C178.87,682.47 181.90,683.03 184.95,683.07C188.00,683.10 195.45,683.72 201.50,684.45C207.55,685.17 214.86,685.81 217.75,685.88zM157.50,657.88C162.42,657.89 166.28,657.22 170.50,655.61C175.42,653.73 176.55,652.86 176.80,650.79C176.99,649.24 178.09,647.83 179.66,647.11C181.75,646.15 181.99,645.69 180.98,644.48C180.31,643.66 179.09,643.00 178.27,643.00C177.22,643.00 177.02,642.49 177.59,641.25C178.04,640.29 178.65,635.47 178.95,630.54C179.50,621.57 179.50,621.57 182.80,620.90C184.62,620.53 186.38,619.95 186.72,619.62C187.06,619.28 186.64,619.00 185.80,619.00C184.96,619.00 183.12,618.10 181.72,617.00C180.32,615.89 178.47,615.27 177.59,615.60C176.72,615.94 176.26,616.62 176.57,617.11C176.88,617.61 176.42,618.28 175.56,618.61C174.63,618.97 173.28,618.36 172.25,617.12C171.08,615.72 168.07,614.52 163.21,613.52C159.20,612.69 154.70,611.37 153.21,610.59C151.72,609.82 149.22,607.84 147.66,606.19C144.83,603.21 144.83,603.21 144.92,531.35C144.98,491.83 144.65,458.15 144.19,456.51C143.36,453.51 143.36,453.51 139.15,460.01C136.83,463.58 132.72,471.00 130.01,476.50C127.30,482.00 123.08,491.90 120.62,498.50C118.17,505.10 115.04,514.55 113.66,519.50C112.28,524.45 110.45,531.90 109.61,536.05C108.76,540.20 107.55,548.01 106.91,553.41C106.23,559.21 105.96,570.06 106.26,579.87C106.61,591.12 107.44,599.59 108.82,606.05C109.95,611.31 111.80,617.97 112.94,620.85C114.08,623.74 115.86,627.76 116.90,629.80C117.95,631.83 120.66,636.01 122.94,639.07C125.21,642.14 129.31,646.35 132.05,648.44C134.79,650.53 140.06,653.50 143.77,655.05C148.94,657.21 152.12,657.86 157.50,657.88zM611.75,614.96C612.99,614.98 614.00,614.61 614.00,614.13C614.00,613.66 611.37,612.31 608.15,611.13C604.93,609.96 601.67,609.01 600.90,609.03C599.94,609.05 600.13,609.56 601.50,610.64C602.60,611.50 604.85,612.82 606.50,613.57C608.15,614.31 610.51,614.94 611.75,614.96zM190.20,599.00C190.64,599.00 191.00,598.83 191.00,598.63C191.00,598.42 190.22,596.28 189.26,593.88C187.68,589.88 187.48,582.24 187.01,506.30C186.60,440.01 186.24,422.83 185.20,421.80C184.34,420.94 179.48,420.30 170.70,419.89C160.82,419.44 156.97,419.61 155.40,420.57C153.61,421.66 153.20,423.17 152.66,430.68C152.31,435.53 151.98,474.08 151.93,516.33C151.88,558.59 152.11,593.45 152.45,593.79C152.79,594.12 160.68,594.87 169.99,595.45C180.91,596.13 187.34,596.94 188.15,597.75C188.84,598.44 189.76,599.00 190.20,599.00zM642.00,567.35C643.92,567.06 646.93,566.16 648.68,565.34C650.43,564.51 654.10,561.47 656.83,558.59C659.56,555.70 662.90,551.12 664.26,548.42C665.61,545.71 667.01,542.26 667.38,540.75C667.74,539.24 667.88,538.00 667.69,538.00C667.49,538.00 665.61,540.49 663.51,543.54C661.41,546.59 657.50,551.06 654.82,553.47C652.14,555.88 647.92,558.63 645.44,559.58C641.58,561.05 640.33,561.12 636.72,560.05C634.40,559.37 631.03,557.70 629.23,556.34C627.44,554.98 624.63,551.54 623.00,548.69C621.37,545.83 619.30,540.20 618.40,536.16C617.26,531.06 616.97,526.97 617.45,522.72C617.83,519.36 619.67,512.84 621.53,508.22C623.39,503.60 626.06,497.87 627.45,495.49C628.85,493.11 631.84,489.58 634.11,487.64C636.38,485.70 639.57,483.81 641.20,483.46C642.82,483.10 645.75,483.11 647.70,483.47C650.19,483.94 653.13,485.98 657.62,490.36C661.13,493.78 664.00,496.31 664.00,495.97C664.00,495.63 662.53,493.28 660.73,490.75C658.93,488.22 656.25,485.20 654.79,484.05C653.32,482.89 650.53,481.28 648.59,480.47C646.65,479.66 642.69,479.01 639.78,479.02C636.85,479.03 632.72,479.85 630.50,480.87C628.30,481.87 624.83,484.54 622.79,486.80C620.75,489.06 618.22,492.62 617.15,494.70C616.09,496.79 614.50,500.94 613.61,503.93C612.53,507.56 612.00,513.21 612.00,520.97C612.00,528.03 612.58,534.82 613.49,538.30C614.31,541.44 616.38,546.82 618.10,550.26C619.82,553.69 622.32,557.96 623.66,559.75C625.00,561.54 627.54,563.75 629.30,564.67C631.06,565.58 633.85,566.68 635.50,567.10C637.15,567.51 640.08,567.63 642.00,567.35zM408.00,556.61C417.50,556.50 417.50,556.50 417.50,551.00C417.50,545.50 417.50,545.50 410.58,544.82C406.77,544.44 393.86,543.99 381.89,543.82C365.46,543.58 359.81,543.81 358.86,544.75C358.17,545.44 357.60,547.58 357.60,549.50C357.60,551.42 358.08,553.48 358.66,554.06C359.27,554.67 367.90,555.46 379.11,555.92C389.77,556.36 402.77,556.67 408.00,556.61zM223.18,552.86C227.13,552.98 227.97,552.67 228.53,550.90C228.90,549.74 228.70,548.30 228.09,547.69C227.44,547.04 220.45,546.27 211.24,545.83C198.08,545.21 195.26,545.32 194.04,546.54C192.75,547.82 192.76,548.19 194.11,549.54C195.19,550.62 199.00,551.31 207.07,551.89C213.36,552.34 220.61,552.78 223.18,552.86zM652.28,539.00C654.50,539.00 656.35,538.23 657.70,536.75C658.83,535.51 660.20,533.60 660.76,532.50C661.31,531.40 662.06,528.70 662.41,526.50C662.87,523.63 662.55,521.53 661.27,519.06C660.30,517.17 658.94,515.44 658.25,515.23C657.44,514.97 657.00,515.88 657.00,517.79C657.00,519.42 656.32,522.68 655.49,525.04C654.65,527.40 653.48,529.92 652.88,530.64C652.09,531.60 651.27,531.68 649.89,530.94C648.74,530.32 648.00,528.86 648.00,527.16C648.00,525.64 649.11,522.88 650.47,521.05C651.82,519.21 652.70,517.32 652.41,516.85C652.12,516.38 650.84,516.00 649.56,516.00C648.29,516.00 646.68,516.68 645.98,517.52C645.29,518.35 644.36,520.94 643.91,523.27C643.46,525.60 643.34,528.95 643.65,530.72C643.96,532.49 645.27,535.07 646.56,536.47C648.18,538.21 649.95,539.00 652.28,539.00zM219.63,537.84C223.57,537.94 226.14,537.54 226.82,536.72C227.41,536.01 227.57,534.95 227.19,534.36C226.78,533.73 220.41,533.07 211.43,532.73C203.14,532.42 195.71,532.56 194.93,533.04C193.79,533.75 193.76,534.16 194.78,535.18C195.50,535.90 199.86,536.72 204.78,537.07C209.57,537.41 216.26,537.75 219.63,537.84zM533.17,534.00C539.31,534.00 544.15,533.83 543.92,533.63C543.69,533.43 538.66,532.95 532.75,532.56C525.37,532.08 522.00,532.20 522.00,532.93C522.00,533.63 525.92,534.00 533.17,534.00zM220.21,525.92C226.07,525.99 227.07,525.73 228.06,523.88C228.94,522.25 228.89,521.47 227.85,520.46C226.89,519.53 221.98,519.06 210.80,518.83C199.66,518.60 194.76,518.84 193.92,519.68C193.27,520.33 192.99,521.53 193.30,522.34C193.71,523.40 196.30,523.99 202.68,524.48C207.53,524.85 211.95,525.30 212.50,525.49C213.05,525.69 216.52,525.88 220.21,525.92zM403.00,525.59C414.50,525.50 414.50,525.50 414.80,521.35C415.11,517.20 415.11,517.20 403.80,516.54C397.59,516.17 385.52,516.01 377.00,516.18C361.50,516.50 361.50,516.50 361.17,519.37C360.99,520.95 361.35,522.75 361.97,523.37C362.64,524.04 368.87,524.74 377.30,525.09C385.11,525.41 396.68,525.64 403.00,525.59zM637.38,524.52C637.86,524.46 639.05,521.84 640.02,518.69C641.00,515.54 642.56,511.73 643.50,510.23C644.44,508.73 647.30,505.60 649.86,503.27C654.50,499.04 654.50,499.04 652.01,497.09C650.64,496.01 648.08,494.86 646.32,494.53C644.35,494.16 641.63,494.55 639.30,495.52C637.21,496.39 634.07,498.49 632.32,500.18C630.57,501.88 628.14,505.57 626.93,508.38C625.72,511.20 624.73,515.18 624.73,517.23C624.73,519.29 625.27,521.63 625.94,522.43C626.61,523.24 629.26,524.06 631.83,524.26C634.40,524.46 636.89,524.57 637.38,524.52zM539.00,521.81C541.48,521.90 544.17,521.53 545.00,521.00C546.00,520.35 542.20,520.08 533.50,520.19C522.35,520.33 521.50,520.45 527.50,521.00C531.35,521.36 536.52,521.72 539.00,521.81zM538.17,510.82C541.84,510.92 545.55,510.73 546.42,510.39C547.29,510.06 548.00,509.16 548.00,508.39C548.00,507.26 545.00,507.00 531.92,507.00C519.50,507.00 515.93,507.28 516.25,508.25C516.50,509.03 519.47,509.72 524.08,510.07C528.16,510.38 534.50,510.72 538.17,510.82zM226.27,504.13C227.24,503.93 228.29,503.34 228.60,502.84C228.92,502.33 228.63,501.26 227.96,500.46C227.00,499.29 223.57,499.00 210.94,499.00C200.62,499.00 194.88,499.38 194.45,500.09C194.08,500.69 194.28,501.68 194.90,502.30C195.56,502.96 201.79,503.64 210.26,503.96C218.09,504.26 225.29,504.33 226.27,504.13zM402.50,498.55C414.50,498.50 414.50,498.50 414.82,494.60C415.00,492.35 414.64,490.39 413.96,489.97C413.31,489.57 401.02,489.22 386.65,489.20C369.88,489.17 360.07,489.53 359.26,490.20C358.57,490.77 358.00,492.53 358.00,494.10C358.00,496.25 358.56,497.09 360.25,497.49C361.49,497.78 368.80,498.14 376.50,498.30C384.20,498.46 395.90,498.57 402.50,498.55zM545.18,498.79C546.10,498.91 547.56,498.29 548.43,497.43C549.29,496.56 550.00,495.49 550.00,495.05C550.00,494.61 549.38,493.73 548.62,493.10C547.67,492.31 542.35,492.03 531.87,492.22C516.50,492.50 516.50,492.50 516.50,495.00C516.50,497.50 516.50,497.50 530.00,498.04C537.42,498.34 544.26,498.68 545.18,498.79zM218.56,492.83C222.33,492.93 225.32,492.49 226.47,491.64C227.61,490.81 228.08,489.65 227.69,488.64C227.14,487.21 224.98,487.00 211.00,487.00C197.44,487.00 194.84,487.24 194.35,488.54C194.02,489.39 194.07,490.40 194.46,490.79C194.84,491.18 199.06,491.76 203.83,492.08C208.60,492.40 215.23,492.73 218.56,492.83zM538.27,485.83C550.91,486.00 551.05,485.97 552.15,483.56C552.76,482.22 552.99,480.42 552.66,479.56C552.15,478.23 549.62,478.00 535.73,478.00C524.36,478.00 519.04,478.36 518.20,479.20C517.54,479.86 517.00,481.41 517.00,482.64C517.00,484.55 517.63,484.94 521.25,485.27C523.59,485.48 531.25,485.73 538.27,485.83zM212.50,476.70C227.50,476.50 227.50,476.50 227.81,473.84C228.07,471.61 227.67,471.11 225.31,470.71C223.76,470.45 216.81,470.15 209.84,470.03C202.01,469.91 196.39,470.26 195.09,470.95C193.94,471.57 193.00,472.74 193.00,473.57C193.00,474.39 194.01,475.48 195.25,475.98C196.49,476.49 204.25,476.81 212.50,476.70zM370.14,469.95C372.52,470.00 372.84,469.55 373.48,465.26C373.87,462.66 374.86,459.23 375.68,457.65C376.66,455.75 376.83,454.43 376.18,453.78C375.53,453.13 373.45,453.17 370.08,453.89C367.27,454.49 363.40,455.64 361.49,456.44C358.44,457.72 358.00,458.34 358.00,461.43C358.00,464.63 358.45,465.19 362.75,467.43C365.36,468.79 368.69,469.93 370.14,469.95zM408.53,467.92C410.19,467.96 412.56,467.30 413.78,466.44C415.40,465.31 416.00,463.88 416.00,461.14C416.00,459.08 415.46,456.86 414.80,456.20C414.00,455.40 409.55,455.00 401.37,455.00C394.64,455.00 388.00,455.43 386.63,455.95C385.25,456.48 383.59,457.90 382.93,459.12C381.94,460.98 382.04,461.56 383.56,462.67C384.56,463.40 386.53,464.01 387.94,464.02C389.35,464.03 393.88,464.89 398.00,465.94C402.12,466.98 406.86,467.88 408.53,467.92zM386.63,436.00C413.05,436.00 413.05,436.00 414.00,433.50C414.52,432.13 414.67,429.61 414.33,427.91C413.99,426.22 413.22,424.64 412.61,424.41C412.00,424.18 400.38,424.38 386.79,424.84C369.31,425.45 361.62,426.07 360.54,426.97C359.69,427.67 359.00,429.28 359.00,430.54C359.00,431.80 359.27,433.55 359.61,434.42C360.14,435.81 363.46,436.00 386.63,436.00zM170.63,349.00C169.71,349.00 169.09,346.90 168.65,342.25C168.30,338.54 168.02,323.80 168.02,309.50C168.03,295.20 168.47,275.87 169.01,266.55C169.55,257.23 170.42,249.18 170.93,248.67C171.50,248.10 172.17,249.22 172.68,251.62C173.13,253.75 173.50,275.30 173.50,299.50C173.49,323.70 173.15,344.74 172.73,346.25C172.31,347.76 171.36,349.00 170.63,349.00zM322.45,323.00C323.62,323.00 326.58,321.99 329.04,320.75C333.00,318.75 333.51,318.11 333.55,315.04C333.60,311.79 333.88,311.50 338.05,310.43C342.50,309.28 342.50,309.28 339.56,308.49C337.92,308.04 332.80,308.20 327.95,308.84C323.18,309.48 318.79,310.00 318.21,310.00C317.62,310.00 317.00,308.99 316.82,307.75C316.57,306.03 315.74,305.43 313.26,305.19C310.57,304.93 309.81,305.33 308.81,307.51C307.94,309.43 307.91,310.62 308.69,311.83C309.28,312.75 310.60,313.45 311.63,313.39C312.66,313.32 314.21,312.97 315.07,312.60C316.16,312.13 317.00,312.71 317.82,314.51C318.47,315.93 319.00,318.12 319.00,319.38C319.00,320.64 319.30,321.97 319.67,322.33C320.03,322.70 321.29,323.00 322.45,323.00zM269.63,320.92C272.16,320.97 274.24,320.42 275.00,319.50C276.09,318.19 275.40,318.00 269.62,318.00C265.98,318.00 263.00,318.41 263.00,318.92C263.00,319.42 263.56,320.06 264.25,320.34C264.94,320.62 267.36,320.88 269.63,320.92zM293.92,301.00C294.40,301.00 294.43,299.39 293.97,297.35C293.51,295.34 293.40,290.61 293.72,286.85C294.21,280.98 294.06,280.00 292.68,280.00C291.79,280.00 290.55,280.97 289.91,282.17C289.21,283.48 288.96,286.64 289.28,290.20C289.58,293.43 290.54,297.18 291.43,298.54C292.32,299.89 293.44,301.00 293.92,301.00zM287.25,253.85C286.84,253.77 278.62,252.10 269.00,250.14C255.98,247.49 252.27,246.43 254.50,245.99C257.50,245.39 257.50,245.39 255.04,244.56C252.69,243.77 252.78,243.65 257.04,241.92C259.49,240.93 263.86,240.09 266.75,240.06C269.64,240.03 272.00,239.61 272.00,239.12C272.00,238.64 271.40,237.75 270.67,237.15C269.95,236.54 267.02,235.51 264.17,234.85C261.33,234.19 259.00,233.34 259.00,232.96C259.00,232.57 261.02,231.69 263.50,231.00C265.98,230.31 268.00,229.40 268.00,228.98C268.00,228.56 267.29,227.94 266.42,227.61C265.55,227.27 262.85,227.00 260.42,227.00C257.99,227.00 256.00,226.53 256.00,225.95C256.00,225.37 257.69,224.23 259.75,223.41C261.81,222.60 264.62,221.43 266.00,220.83C268.50,219.73 268.50,219.73 265.50,218.41C263.85,217.68 261.04,217.07 259.25,217.05C257.46,217.02 256.00,216.57 256.00,216.04C256.00,215.50 256.79,214.66 257.75,214.17C258.71,213.67 261.19,212.96 263.25,212.59C265.31,212.21 267.00,211.50 267.00,211.00C267.00,210.50 265.31,209.63 263.25,209.05C261.19,208.48 258.71,208.01 257.75,208.01C256.79,208.00 256.00,207.54 256.00,206.98C256.00,206.41 257.01,205.57 258.25,205.11C259.49,204.65 262.64,203.96 265.25,203.58C267.86,203.19 270.00,202.49 270.00,202.01C270.00,201.53 269.21,200.91 268.25,200.64C267.29,200.37 264.14,199.84 261.25,199.48C258.36,199.11 256.00,198.44 256.00,197.99C256.00,197.54 257.91,196.48 260.25,195.65C262.59,194.82 265.76,193.87 267.29,193.54C268.83,193.21 269.81,192.50 269.48,191.97C269.15,191.44 267.00,190.95 264.69,190.88C262.39,190.82 259.15,190.44 257.50,190.04C254.50,189.32 254.50,189.32 257.32,188.16C258.86,187.52 260.69,187.00 261.37,187.00C262.06,187.00 263.49,186.33 264.56,185.52C266.24,184.24 266.30,183.90 265.00,183.03C264.18,182.48 261.78,182.02 259.68,182.02C256.60,182.00 255.92,181.66 256.19,180.27C256.42,179.05 257.97,178.32 261.51,177.76C264.25,177.33 267.58,176.73 268.89,176.43C270.62,176.04 270.99,175.59 270.20,174.80C269.60,174.20 265.74,173.49 261.63,173.23C255.87,172.86 254.28,172.44 254.68,171.38C254.97,170.63 256.85,169.61 258.85,169.11C260.86,168.60 264.25,167.89 266.38,167.52C268.83,167.10 269.91,166.51 269.31,165.91C268.79,165.39 265.35,164.68 261.68,164.33C258.01,163.99 255.00,163.34 255.00,162.89C255.00,162.44 257.33,161.39 260.18,160.54C263.03,159.69 265.96,159.00 266.68,159.00C267.41,159.00 268.00,158.57 268.00,158.05C268.00,157.52 266.40,156.79 264.44,156.42C262.49,156.06 259.26,156.02 257.26,156.34C254.05,156.87 253.81,156.76 255.13,155.44C255.95,154.62 259.52,153.44 263.06,152.81C266.60,152.18 269.92,151.31 270.43,150.86C270.95,150.40 269.76,149.38 267.71,148.52C265.70,147.69 262.81,147.00 261.28,147.01C259.75,147.01 257.23,147.67 255.68,148.48C252.99,149.88 252.88,149.85 253.18,147.79C253.43,146.12 254.66,145.31 258.50,144.28C261.25,143.54 266.54,142.89 270.25,142.83C273.96,142.77 277.00,142.60 277.00,142.45C277.00,142.30 274.21,141.24 270.81,140.09C267.40,138.94 262.85,138.00 260.71,138.00C257.64,138.00 256.19,138.66 253.95,141.06C251.09,144.12 251.09,144.12 245.79,140.72C242.88,138.86 239.90,136.60 239.17,135.71C238.43,134.82 237.98,133.29 238.17,132.30C238.35,131.31 240.07,129.74 242.00,128.82C243.93,127.89 248.97,126.43 253.21,125.57C257.45,124.71 265.38,124.00 270.85,124.00C276.31,124.00 284.43,124.69 288.90,125.54C293.37,126.39 299.05,127.95 301.53,129.01C304.01,130.08 306.34,131.72 306.70,132.65C307.16,133.87 306.13,135.44 303.14,138.10C300.82,140.16 296.46,142.86 293.46,144.10C288.00,146.37 288.00,146.37 288.00,151.13C288.00,154.63 287.53,156.16 286.25,156.89C284.85,157.68 284.75,158.13 285.75,159.14C286.44,159.83 287.00,161.46 287.00,162.77C287.00,164.07 286.57,165.94 286.04,166.93C285.39,168.13 285.47,169.78 286.27,171.89C287.10,174.11 287.15,175.54 286.42,176.70C285.75,177.75 285.67,180.48 286.19,184.25C286.63,187.50 286.60,190.90 286.12,191.82C285.63,192.75 285.46,194.97 285.73,196.76C286.01,198.55 285.70,200.66 285.05,201.44C284.13,202.55 284.19,203.49 285.32,205.64C286.40,207.71 286.51,208.99 285.72,210.70C284.97,212.35 285.02,213.74 285.88,215.63C286.87,217.81 286.80,218.56 285.46,220.05C284.14,221.50 284.06,222.24 285.03,224.05C285.71,225.33 285.96,227.85 285.61,230.02C285.25,232.31 285.60,235.44 286.51,238.02C287.33,240.35 288.00,244.89 288.00,248.13C288.00,251.36 287.66,253.93 287.25,253.85zM241.75,121.42C235.37,124.60 234.91,124.69 233.98,122.97C233.44,121.96 233.01,113.56 233.02,104.32C233.04,95.07 233.46,85.70 233.97,83.50C234.62,80.72 236.36,78.11 239.70,74.91C242.64,72.12 246.73,69.50 250.20,68.20C253.33,67.03 259.67,65.60 264.29,65.03C269.98,64.32 275.77,64.30 282.26,64.98C287.53,65.52 294.36,66.91 297.43,68.06C300.75,69.30 305.16,72.12 308.26,74.97C313.50,79.78 313.50,79.78 313.81,100.01C314.11,119.98 314.09,120.28 311.81,122.70C309.96,124.67 308.80,125.07 306.00,124.68C304.07,124.42 298.00,123.48 292.50,122.60C287.00,121.72 279.82,120.56 276.55,120.02C273.10,119.46 270.25,118.41 269.75,117.52C269.17,116.49 267.36,116.00 264.09,116.00C261.44,116.00 256.86,116.46 253.90,117.02C250.95,117.58 245.48,119.56 241.75,121.42zM240.91,95.00C241.90,95.00 248.74,94.09 256.10,92.98C267.33,91.28 269.79,90.59 271.31,88.73C272.30,87.50 274.17,85.26 275.47,83.75C277.67,81.18 278.34,81.00 285.74,81.00C290.10,81.00 296.23,81.51 299.36,82.14C302.49,82.77 305.30,83.03 305.60,82.73C305.91,82.42 305.64,81.19 305.00,79.99C304.35,78.79 301.84,76.93 299.41,75.86C296.98,74.78 291.58,73.25 287.41,72.45C283.24,71.65 275.70,71.01 270.66,71.02C265.62,71.03 258.41,71.69 254.64,72.49C250.86,73.29 245.86,75.06 243.52,76.43C241.05,77.88 238.75,80.20 238.01,81.97C237.23,83.85 237.00,86.61 237.41,89.17C237.77,91.44 238.31,93.69 238.60,94.15C238.88,94.62 239.93,95.00 240.91,95.00z" />

</svg>